<svg id="fortune" xmlns="http://www.w3.org/2000/svg" width="380" height="380" viewBox="0 0 380 380"><g id="wheel"><g id="slice-1"><path id="sliceBkg_1" data-name="sliceBkg 1" d="M351.94,95.49,188.23,190V1Z" fill="#ddd" fill-rule="evenodd"/></g><g id="slice-4"><path id="sliceBkg_1-2" data-name="sliceBkg 1" d="M188.23,190V379L24.55,284.5Z" fill="#ddd" fill-rule="evenodd"/></g><g id="slice-5"><path id="sliceBkg_1-3" data-name="sliceBkg 1" d="M24.53,95.48,188.22,190,24.54,284.49Z" fill="#ccc" fill-rule="evenodd"/></g><g id="slice-2"><path id="sliceBkg_1-4" data-name="sliceBkg 1" d="M188.22,190,351.93,95.5v189Z" fill="#ccc" fill-rule="evenodd"/></g><g id="slice-3"><path id="sliceBkg_1-5" data-name="sliceBkg 1" d="M188.22,379V190l163.68,94.52Z" fill="#bbb" fill-rule="evenodd"/></g><g id="slice-6"><path id="sliceBkg_1-6" data-name="sliceBkg 1" d="M188.23,190,24.54,95.47,188.23,1Z" fill="#bbb" fill-rule="evenodd"/></g><text transform="translate(318.76 105.96) rotate(-30)" font-size="14" fill="#666" font-family="Roboto-Black, Roboto" font-weight="800">Bio</text><text transform="translate(315.59 258.99) rotate(30)" font-size="14" fill="#666" font-family="Roboto-Black, Roboto" font-weight="800"><tspan letter-spacing="-0.02em">W</tspan><tspan x="11.96" y="0">ork</tspan></text><text transform="translate(30.36 116.77) rotate(30)" font-size="14" fill="#666" font-family="Roboto-Black, Roboto" font-weight="800"><tspan letter-spacing="-0.02em">W</tspan><tspan x="11.96" y="0">ork</tspan></text><text transform="translate(183.65 62.15) rotate(-90)" font-size="14" fill="#666" font-family="Roboto-Black, Roboto" font-weight="800">Contact</text><text transform="translate(201.83 366.93) rotate(-90)" font-size="14" fill="#666" font-family="Roboto-Black, Roboto" font-weight="800">Contact</text><text transform="translate(45.81 290) rotate(-30)" font-size="14" fill="#666" font-family="Roboto-Black, Roboto" font-weight="800">Bio</text></g><g id="arrow"><polygon id="Rectangle" points="174.86 97.04 188.22 78.12 201.58 97.04 201.58 301.88 188.22 282.96 174.86 301.88 174.86 97.04" fill-rule="evenodd" opacity="0.7" style="isolation:isolate"/><circle id="Oval" cx="188.22" cy="190" r="7.06" fill="#d8d8d8" stroke="#bdbdbd" stroke-width="2"/><circle id="pointer" cx="188.22" cy="73.99" r="1.76" fill="none"/></g></svg>